HIERARCHY
ROOT Hips
{
	OFFSET 0.00000 0.00000 0.00000
	CHANNELS 6 Xposition Yposition Zposition Zrotation Yrotation Xrotation 
	JOINT LHipJoint
	{
		OFFSET 0 0 0
		CHANNELS 3 Zrotation Yrotation Xrotation
		JOINT LeftHip
		{
			OFFSET 1.57093 -1.69714 0.87455
			CHANNELS 3 Zrotation Yrotation Xrotation
			JOINT LeftKnee
			{
				OFFSET 2.48056 -6.81529 0.00000
				CHANNELS 3 Zrotation Yrotation Xrotation
				JOINT LeftAnkle
				{
					OFFSET 2.62558 -7.21374 0.00000
					CHANNELS 3 Zrotation Yrotation Xrotation
					JOINT LeftToe
					{
						OFFSET 0.17911 -0.49210 2.16707
						CHANNELS 3 Zrotation Yrotation Xrotation
						End Site
						{
							OFFSET 0.00000 -0.00000 1.11848
						}
					}
				}
			}
		}
	}
	JOINT RHipJoint
	{
		OFFSET 0 0 0
		CHANNELS 3 Zrotation Yrotation Xrotation
		JOINT RightHip
		{
			OFFSET -1.69739 -1.69715 0.87455
			CHANNELS 3 Zrotation Yrotation Xrotation
			JOINT RightKnee
			{
				OFFSET -2.33658 -6.41972 0.00000
				CHANNELS 3 Zrotation Yrotation Xrotation
				JOINT RightAnkle
				{
					OFFSET -2.60856 -7.16696 0.00000
					CHANNELS 3 Zrotation Yrotation Xrotation
					JOINT RightToe
					{
						OFFSET -0.20854 -0.57296 2.11053
						CHANNELS 3 Zrotation Yrotation Xrotation
						End Site
						{
							OFFSET -0.00000 -0.00000 1.09848
						}
					}
				}
			}
		}
	}
	JOINT lowerback
	{
		OFFSET 0 0 0
		CHANNELS 3 Zrotation Yrotation Xrotation
		JOINT Chest
		{
			OFFSET 0.02563 2.15732 -0.03270
			CHANNELS 3 Zrotation Yrotation Xrotation
			JOINT Chest2
			{
				OFFSET 0.00281 2.14662 0.09285
				CHANNELS 3 Zrotation Yrotation Xrotation
				JOINT lowerneck
				{
					OFFSET 0 0 0
					CHANNELS 3 Zrotation Yrotation Xrotation
					JOINT Neck
					{
						OFFSET -0.04440 1.68397 0.17601
						CHANNELS 3 Zrotation Yrotation Xrotation
						JOINT Head
						{
							OFFSET 0.06040 1.66995 -0.35615
							CHANNELS 3 Zrotation Yrotation Xrotation
							End Site
							{
								OFFSET 0.02405 1.72189 -0.14044
							}
						}
					}
				}
				JOINT LeftCollar
				{
					OFFSET 0 0 0
					CHANNELS 3 Zrotation Yrotation Xrotation
					JOINT LeftShoulder
					{
						OFFSET 2.98955 1.90907 -0.21660
CHANNELS 3 Zrotation Xrotation Yrotation
						JOINT LeftElbow
						{
OFFSET 0 -4.913770 0.000000
CHANNELS 3 Zrotation Xrotation Yrotation
							JOINT LeftWrist
							{
OFFSET 0 -3.002910 -0.000000
CHANNELS 3 Zrotation Xrotation Yrotation
								JOINT lhand
								{
									OFFSET 0 0 0
CHANNELS 3 Zrotation Xrotation Yrotation
									JOINT LFingers
									{
OFFSET 0 -0.450920 -0.000000
CHANNELS 3 Zrotation Xrotation Yrotation
										End Site
										{
OFFSET 0 -0.363550 -0.000000
										}
									}
								}
								JOINT LThumb
								{
OFFSET 0 0.000000 0.000000
CHANNELS 3 Zrotation Xrotation Yrotation
									End Site
									{
OFFSET 0 -0.369100 0.369100
									}
								}
							}
						}
					}
				}
				JOINT RightCollar
				{
					OFFSET 0 0 0
					CHANNELS 3 Zrotation Yrotation Xrotation
					JOINT RightShoulder
					{
						OFFSET -2.80452 1.90886 -0.21152
CHANNELS 3 Zrotation Xrotation Yrotation
						JOINT RightElbow
						{
OFFSET 0 -4.867250 0.000000
CHANNELS 3 Zrotation Xrotation Yrotation
							JOINT RightWrist
							{
OFFSET 0 -3.171440 -0.000000
CHANNELS 3 Zrotation Xrotation Yrotation
								JOINT rhand
								{
									OFFSET 0 0 0
CHANNELS 3 Zrotation Xrotation Yrotation
									JOINT RFingers
									{
OFFSET 0 -0.419370 -0.000000
CHANNELS 3 Zrotation Xrotation Yrotation
										End Site
										{
OFFSET 0 -0.338100 -0.000000
										}
									}
								}
								JOINT RThumb
								{
OFFSET 0 0.000000 0.000000
CHANNELS 3 Zrotation Xrotation Yrotation
									End Site
									{
OFFSET 0 -0.343270 0.343270
									}
								}
							}
						}
					}
				}
			}
		}
	}
}
MOTION
Frames: 7
Frame Time: 0.008333333333333333
2.109300 14.556800 8.795500 -5.195300 2.446200 110.168000 0.000000 0.000000 0.000000 -16.442000 -14.439600 -45.143800 4.036000 12.208200 36.472400 -0.145200 7.768500 -6.959800 1.484200 -7.697000 -21.797300 0.000000 0.000000 0.000000 17.439100 10.292800 -41.539300 -3.992100 -12.149900 36.264500 -0.329500 -4.525200 10.233600 -0.574400 -4.853400 13.490900 -3.658900 3.213300 -20.712400 3.803200 4.930700 -4.717900 7.452000 2.457800 5.737700 9.052700 -0.627800 -17.126700 -5.824000 -1.867500 31.803700 -4.182900 -0.476200 13.420500 -0.000000 -0.000000 0.000000 64.972700 -33.895600 -39.112000 58.705500 -55.955000 33.266200 41.616800 -34.879400 8.024000 0.000000 0.000000 0.000000 -7.125000 0.000000 0.000000 10.483900 19.392600 6.517300 -0.000000 -0.000000 0.000000 -160.424000 -27.659100 -56.325300 -17.731700 -27.812300 -4.423400 -23.982700 3.338800 -1.948500 0.000000 0.000000 0.000000 7.125000 0.000000 -0.000000 2.005600 27.845600 0.837100
2.142407 14.551110 8.876251 -4.841630 2.125192 110.574938 0.000000 0.000000 0.000000 -14.252027 -19.107495 -44.324804 2.801367 10.366038 30.170702 -0.581750 14.479242 -11.343851 0.932944 -6.152325 -17.227155 0.000000 0.000000 0.000000 17.147888 8.932885 -40.988112 -4.197867 -12.419214 37.231512 -0.413968 -5.248405 11.489350 -0.634741 -5.097530 14.186842 -2.894478 3.519109 -20.335053 3.538801 5.207624 -5.331630 6.710156 2.653344 4.931840 11.105128 -0.626778 -17.338604 -6.328485 -2.395193 32.427687 -4.860514 -0.502526 13.653074 0.000000 0.000000 0.000000 57.280119 -24.619906 -51.150207 63.347469 -57.137786 37.140042 42.835455 -35.374444 6.907647 0.000000 0.000000 0.000000 -7.125000 0.000000 0.000000 11.526090 20.679786 6.850883 0.000000 0.000000 0.000000 -159.023502 -27.818150 -53.324750 -19.097256 -29.539271 -5.078781 -25.186223 2.738658 -2.500454 0.000000 0.000000 0.000000 7.125000 0.000000 0.000000 1.078574 27.216525 0.465876
2.173574 14.557207 8.912280 -4.423748 1.832970 110.878604 0.000000 0.000000 0.000000 -11.421468 -24.436089 -43.535969 2.094743 9.060593 25.985330 -1.057951 19.523892 -15.891898 0.571342 -4.840482 -13.454149 0.000000 0.000000 0.000000 16.745438 7.911940 -41.177773 -4.470107 -12.760889 38.480120 -0.470148 -6.122524 12.300805 -0.680928 -5.276103 14.697730 -2.046892 3.618269 -19.803318 3.469610 5.173986 -5.734486 6.068896 2.666767 4.309734 11.903499 -0.455009 -17.065910 -5.914687 -2.522115 32.047268 -4.823850 -0.429585 13.426520 0.000000 0.000000 0.000000 52.060426 -13.959194 -60.237354 65.427355 -57.590786 38.891617 43.450215 -38.053828 5.448446 0.000000 0.000000 0.000000 -7.125000 0.000000 0.000000 12.224701 22.540455 6.755328 0.000000 0.000000 0.000000 -157.844018 -27.660717 -50.813609 -20.827322 -31.625983 -5.959172 -26.073699 3.264455 -3.504015 0.000000 0.000000 0.000000 7.125000 0.000000 0.000000 0.413476 26.079786 0.189483
2.177679 14.570040 8.912189 -4.389847 1.873699 110.838386 0.000000 0.000000 0.000000 -11.066749 -25.540098 -43.298932 1.936355 8.732150 24.961071 -1.300436 20.753720 -14.983753 0.521781 -4.629543 -12.854968 0.000000 0.000000 0.000000 16.573730 7.733639 -41.591083 -4.677094 -13.010725 39.408498 -0.512512 -6.975802 12.923372 -0.701140 -5.352280 14.916069 -1.353137 3.791524 -19.256850 3.648590 5.263104 -5.825035 5.830769 2.721917 3.963854 12.271689 -0.364982 -16.725944 -5.424666 -2.634704 31.834880 -4.688364 -0.384691 13.267202 0.000000 0.000000 0.000000 48.731494 -3.365248 -67.106022 66.177753 -57.743135 39.525639 43.816422 -40.533005 3.362099 0.000000 0.000000 0.000000 -7.125000 0.000000 0.000000 12.876162 25.303573 6.288782 0.000000 0.000000 0.000000 -156.793486 -27.205056 -48.609747 -22.335978 -33.354603 -6.769671 -27.687470 3.969137 -5.504658 0.000000 0.000000 0.000000 7.125000 0.000000 0.000000 -0.733731 23.768342 -0.376425
2.158178 14.573460 8.883504 -4.629857 2.108837 110.377104 0.000000 0.000000 0.000000 -13.725035 -22.352936 -43.006613 2.185683 9.242264 26.556267 -1.022432 17.896732 -10.492210 0.505858 -4.559257 -12.655594 0.000000 0.000000 0.000000 16.521822 8.160254 -41.943353 -4.685806 -13.020932 39.446969 -0.537753 -7.677028 13.326001 -0.686919 -5.298884 14.763091 -0.970665 4.228263 -18.935638 3.878532 5.768297 -5.623225 5.948783 2.974272 3.971724 12.301812 -0.558560 -16.717801 -4.745964 -3.154865 32.301170 -4.519047 -0.491351 13.434411 0.000000 0.000000 0.000000 47.430527 5.907885 -72.595869 67.000033 -57.903580 40.221668 45.486156 -43.350262 2.620759 0.000000 0.000000 0.000000 -7.125000 0.000000 0.000000 14.242249 26.187137 6.691235 0.000000 0.000000 0.000000 -155.823805 -26.636150 -46.836007 -22.691413 -33.749590 -6.966112 -29.943911 4.393514 -8.616646 0.000000 0.000000 0.000000 7.125000 0.000000 0.000000 -2.185358 20.063459 -1.304700
2.123930 14.560549 8.832713 -4.945287 2.232854 109.853967 0.000000 0.000000 0.000000 -16.775673 -18.677886 -42.343553 2.654769 10.113529 29.345686 -0.682049 14.523935 -7.074413 0.397233 -4.044743 -11.202846 0.000000 0.000000 0.000000 16.139673 9.155079 -42.541083 -4.452523 -12.739200 38.400177 -0.514362 -8.278990 13.182840 -0.701870 -5.354797 14.923441 -0.940007 4.766303 -19.079088 4.078812 6.476917 -5.377404 6.326564 3.324425 4.213051 11.940587 -0.942594 -16.599582 -4.038496 -3.810456 32.722603 -4.283420 -0.694264 13.554069 0.000000 0.000000 0.000000 47.883247 13.657685 -76.547913 68.280797 -58.140325 41.308040 45.418547 -47.086319 3.012779 0.000000 0.000000 0.000000 -7.125000 0.000000 0.000000 14.112167 25.652032 6.808726 0.000000 0.000000 0.000000 -155.232588 -26.392101 -45.884736 -21.749585 -32.692555 -6.450197 -31.595029 6.194237 -10.518244 0.000000 0.000000 0.000000 7.125000 0.000000 0.000000 -3.181029 17.694246 -2.066972
2.078056 14.544639 8.780616 -5.184772 2.258621 109.400967 0.000000 0.000000 0.000000 -19.234649 -15.656907 -41.234530 3.161819 10.952160 32.119223 -0.466266 11.994507 -4.453003 0.176034 -2.702336 -7.451159 0.000000 0.000000 0.000000 15.351720 10.787097 -43.281478 -3.948766 -12.091407 36.056661 -0.389382 -8.876033 11.896501 -0.755803 -5.552470 15.491389 -1.089434 5.279240 -19.423288 4.245134 7.191716 -5.231331 6.790739 3.680028 4.427574 11.421745 -1.347456 -16.337203 -3.596739 -4.326318 32.902342 -4.090867 -0.901899 13.547955 0.000000 0.000000 0.000000 49.764654 20.203905 -79.512564 67.631471 -58.021873 40.756989 45.148763 -51.048156 5.822018 0.000000 0.000000 0.000000 -7.125000 0.000000 0.000000 13.346640 21.825821 7.631004 0.000000 0.000000 0.000000 -154.883999 -26.521761 -45.869536 -20.215506 -30.900619 -5.641791 -31.464908 8.861884 -10.261499 0.000000 0.000000 0.000000 7.125000 0.000000 0.000000 -3.115576 18.007259 -2.002926
